# xmcd
#
# Track frame offsets:
#	150
#	17146
#	33116
#	49748
#	68453
#	83477
#	102288
#	118340
#	134555
#	154518
#	170337
#	190100
#	207077
#
# Disc length: 3043 seconds
#
# Revision: 1
# Processed by: cddbd v1.4b42PL1 Copyright (c) Steve Scherf et al.
# Submitted via: audiograbber 1.80
#
DISCID=a00be10d
DTITLE=Lil Johnny - I Got You
DYEAR=1900
DGENRE=
TTITLE0=Dance Dance
TTITLE1=I Got You
TTITLE2=Please
TTITLE3=Wheel Of Fortune
TTITLE4=You Can't Be Serious
TTITLE5=That's What I'm Talking About
TTITLE6=Why
TTITLE7=Curfew
TTITLE8=Dream Girl
TTITLE9=Hang It Up
TTITLE10=Better Get Ready
TTITLE11=Tonight
TTITLE12=If You're Ready
EXTD=
EXTT0=
EXTT1=
EXTT2=
EXTT3=
EXTT4=
EXTT5=
EXTT6=
EXTT7=
EXTT8=
EXTT9=
EXTT10=
EXTT11=
EXTT12=
PLAYORDER=
